<?xml version="1.0" encoding="UTF-8"?>
<svg xmlns="http://www.w3.org/2000/svg" xmlns:xlink="http://www.w3.org/1999/xlink" width="60px" height="60px" viewBox="0 0 60 60" version="1.1">
<g id="surface1">
<path style=" stroke:none;fill-rule:evenodd;fill:rgb(0%,0%,0%);fill-opacity:1;" d="M 56.25 7.5 C 56.25 5.429688 54.570312 3.75 52.5 3.75 L 7.5 3.75 C 5.429688 3.75 3.75 5.429688 3.75 7.5 L 3.75 52.5 C 3.75 54.570312 5.429688 56.25 7.5 56.25 L 52.5 56.25 C 54.570312 56.25 56.25 54.570312 56.25 52.5 Z M 0 7.5 C 0 3.359375 3.359375 0 7.5 0 L 52.5 0 C 56.640625 0 60 3.359375 60 7.5 L 60 52.5 C 60 56.640625 56.640625 60 52.5 60 L 7.5 60 C 3.359375 60 0 56.640625 0 52.5 Z M 43.125 28.125 C 44.160156 28.125 45 28.964844 45 30 C 45 31.035156 44.160156 31.875 43.125 31.875 L 21.402344 31.875 L 29.453125 39.921875 C 30.1875 40.65625 30.1875 41.84375 29.453125 42.578125 C 28.71875 43.3125 27.53125 43.3125 26.796875 42.578125 L 15.546875 31.328125 C 15.195312 30.976562 14.996094 30.5 14.996094 30 C 14.996094 29.5 15.195312 29.023438 15.546875 28.671875 L 26.796875 17.421875 C 27.53125 16.6875 28.71875 16.6875 29.453125 17.421875 C 30.1875 18.15625 30.1875 19.34375 29.453125 20.078125 L 21.402344 28.125 Z M 43.125 28.125 "/>
</g>
</svg>
